<svg xmlns="http://www.w3.org/2000/svg" viewBox="0 0 96 104" role="img" aria-hidden="true"><defs><radialGradient id="emerald" cx="50%" cy="34%" r="76%"><stop offset="0" stop-color="#17634f"/><stop offset=".58" stop-color="#0a4337"/><stop offset="1" stop-color="#032b24"/></radialGradient><linearGradient id="gold" x1="0" y1="0" x2="1" y2="1"><stop stop-color="#fff0ad"/><stop offset=".34" stop-color="#e9bd58"/><stop offset=".7" stop-color="#a96e17"/><stop offset="1" stop-color="#f7d477"/></linearGradient><filter id="glow" x="-40%" y="-40%" width="180%" height="180%"><feGaussianBlur stdDeviation="2.2" result="b"/><feMerge><feMergeNode in="b"/><feMergeNode in="SourceGraphic"/></feMerge></filter><pattern id="pattern" width="12" height="12" patternUnits="userSpaceOnUse"><path d="M6 0 12 6 6 12 0 6Z" fill="none" stroke="#d9aa46" stroke-opacity=".12" stroke-width=".7"/></pattern></defs><path d="M10 94V45C10 28 26 19 48 5c22 14 38 23 38 40v49Z" fill="url(#emerald)" stroke="#6e4610" stroke-width="7" stroke-linejoin="round"/><path d="M10 94V45C10 28 26 19 48 5c22 14 38 23 38 40v49Z" fill="url(#pattern)" stroke="url(#gold)" stroke-width="3.5" stroke-linejoin="round"/><path d="M17 87V47c0-13 12-21 31-33 19 12 31 20 31 33v40Z" fill="none" stroke="#ffe9a0" stroke-opacity=".45"/><circle cx="48" cy="50" r="26" fill="#e2ad42" opacity=".08" filter="url(#glow)"/><g transform="translate(16 21) scale(1.333)" fill="none" stroke="url(#gold)" stroke-width="2.25" stroke-linecap="round" stroke-linejoin="round" filter="url(#glow)"><path d="M24 7c4 5 9 7 15 8v10c0 9-5 14-15 18C14 39 9 34 9 25V15c6-1 11-3 15-8Z"/><path d="m17 25 5 5 10-11"/></g><circle cx="23" cy="39" r="1.3" fill="#ffe99a"/><circle cx="77" cy="53" r=".8" fill="#ffe99a" opacity=".8"/><path d="M31 96h34" stroke="url(#gold)" stroke-width="1.4" stroke-linecap="round"/></svg>
