<svg xmlns="http://www.w3.org/2000/svg" viewBox="0 0 512 512"><defs><linearGradient id="g"><stop stop-color="#113b32"/><stop offset="1" stop-color="#225f50"/></linearGradient><linearGradient id="gold" x1="0" y1="0" x2="1" y2="1"><stop stop-color="#ffe6a5"/><stop offset=".5" stop-color="#c59a4d"/><stop offset="1" stop-color="#765020"/></linearGradient></defs><circle cx="256" cy="256" r="238" fill="url(#g)"/><circle cx="256" cy="256" r="218" fill="none" stroke="url(#gold)" stroke-width="16"/><path d="M112 186c46-26 93-30 144 1v186c-52-32-100-28-144-2z" fill="#f8f1e6" stroke="#d7b469" stroke-width="8"/><path d="M400 186c-46-26-93-30-144 1v186c52-32 100-28 144-2z" fill="#fffaf2" stroke="#d7b469" stroke-width="8"/><path d="M256 188v186" stroke="#9e7635" stroke-width="6"/><g stroke="#b99352" stroke-width="5" stroke-linecap="round" opacity=".9"><path d="M145 229h76M145 257h84M145 285h70M292 229h74M283 257h83M294 285h66"/></g><path d="M256 93l13 24 27 5-19 19 5 27-26-13-25 13 5-27-19-19 27-5z" fill="#f1cf79"/><path d="M163 160c24-23 52-34 84-34" fill="none" stroke="#e8c97b" stroke-width="6" stroke-linecap="round"/><path d="M349 160c-24-23-52-34-84-34" fill="none" stroke="#e8c97b" stroke-width="6" stroke-linecap="round"/></svg>